<svg id="offshore" xmlns="http://www.w3.org/2000/svg" viewBox="0 0 511.992 511.992">
	<path d="M503.467,255.996H8.534c-3.208,0-6.144,1.801-7.603,4.659c-1.459,2.859-1.186,6.298,0.708,8.892l68.267,93.867
		c1.604,2.21,4.156,3.516,6.886,3.516c40.823,0,356.617,0,384.068,0c1.289,0,2.543-0.299,3.695-0.87
		c41.779-20.855,47.437-62.985,47.437-101.461C512,259.861,508.194,255.996,503.467,255.996z M110.934,285.863
		c0,2.355-1.911,4.267-4.267,4.267h-8.533c-2.355,0-4.267-1.911-4.267-4.267v-8.533c0-2.355,1.911-4.267,4.267-4.267h8.533
		c2.355,0,4.267,1.911,4.267,4.267V285.863z M145.067,285.863c0,2.355-1.911,4.267-4.267,4.267h-8.533
		c-2.355,0-4.267-1.911-4.267-4.267v-8.533c0-2.355,1.911-4.267,4.267-4.267h8.533c2.355,0,4.267,1.911,4.267,4.267V285.863z
		 M179.2,285.863c0,2.355-1.911,4.267-4.267,4.267H166.4c-2.355,0-4.267-1.911-4.267-4.267v-8.533c0-2.355,1.911-4.267,4.267-4.267
		h8.533c2.355,0,4.267,1.911,4.267,4.267V285.863z M213.334,285.863c0,2.355-1.911,4.267-4.267,4.267h-8.533
		c-2.355,0-4.267-1.911-4.267-4.267v-8.533c0-2.355,1.911-4.267,4.267-4.267h8.533c2.355,0,4.267,1.911,4.267,4.267V285.863z
		 M247.467,285.863c0,2.355-1.911,4.267-4.267,4.267h-8.533c-2.355,0-4.267-1.911-4.267-4.267v-8.533
		c0-2.355,1.911-4.267,4.267-4.267h8.533c2.355,0,4.267,1.911,4.267,4.267V285.863z M281.6,285.863
		c0,2.355-1.911,4.267-4.267,4.267H268.8c-2.355,0-4.267-1.911-4.267-4.267v-8.533c0-2.355,1.911-4.267,4.267-4.267h8.533
		c2.355,0,4.267,1.911,4.267,4.267V285.863z M315.734,285.863c0,2.355-1.911,4.267-4.267,4.267h-8.533
		c-2.355,0-4.267-1.911-4.267-4.267v-8.533c0-2.355,1.911-4.267,4.267-4.267h8.533c2.355,0,4.267,1.911,4.267,4.267V285.863z
		 M349.867,285.863c0,2.355-1.911,4.267-4.267,4.267h-8.533c-2.355,0-4.267-1.911-4.267-4.267v-8.533
		c0-2.355,1.911-4.267,4.267-4.267h8.533c2.355,0,4.267,1.911,4.267,4.267V285.863z M384,285.863c0,2.355-1.911,4.267-4.267,4.267
		H371.2c-2.355,0-4.267-1.911-4.267-4.267v-8.533c0-2.355,1.911-4.267,4.267-4.267h8.533c2.355,0,4.267,1.911,4.267,4.267V285.863z
		 M418.134,285.863c0,2.355-1.911,4.267-4.267,4.267h-8.533c-2.355,0-4.267-1.911-4.267-4.267v-8.533
		c0-2.355,1.911-4.267,4.267-4.267h8.533c2.355,0,4.267,1.911,4.267,4.267V285.863z M452.267,285.863
		c0,2.355-1.911,4.267-4.267,4.267h-8.533c-2.355,0-4.267-1.911-4.267-4.267v-8.533c0-2.355,1.911-4.267,4.267-4.267H448
		c2.355,0,4.267,1.911,4.267,4.267V285.863z"/>
	<path d="M439.45,190.451l-5.589-14.353c-1.271-3.277-4.429-5.436-7.945-5.436h-33.382v-21.333c0-2.355-1.911-4.267-4.267-4.267
		h-8.533c-2.355,0-4.267,1.911-4.267,4.267v21.333H332.8v-21.333c0-2.355-1.911-4.267-4.267-4.267H320
		c-2.355,0-4.267,1.911-4.267,4.267v21.333h-42.667v-21.333c0-2.355-1.911-4.267-4.267-4.267h-8.533
		c-2.355,0-4.267,1.911-4.267,4.267v21.333h-35.396c-3.516,0-6.673,2.159-7.953,5.436l-5.589,14.345
		c-1.084,2.799,0.981,5.82,3.977,5.82h224.435C438.477,196.263,440.542,193.242,439.45,190.451z"/>
	<path d="M475.836,233.237l-5.052-14.234c-1.203-3.405-4.429-5.675-8.038-5.675H131.328c-3.61,0-6.835,2.27-8.038,5.675
		l-5.052,14.225c-0.99,2.782,1.067,5.7,4.011,5.7h349.568C474.761,238.929,476.826,236.011,475.836,233.237z"/>
</svg>
